<?xml version="1.0" encoding="utf-8"?>
<!-- Generator: Adobe Illustrator 24.3.0, SVG Export Plug-In . SVG Version: 6.00 Build 0)  -->
<svg version="1.1" id="Layer_1" xmlns="http://www.w3.org/2000/svg" xmlns:xlink="http://www.w3.org/1999/xlink" x="0px" y="0px"
	 viewBox="0 0 1080 1080" style="enable-background:new 0 0 1080 1080;" xml:space="preserve">
<style type="text/css">
	.st0{fill:none;stroke:#F496BF;stroke-width:25;stroke-miterlimit:10;}
</style>
<path class="st0" d="M122.22,1075.33C281.83,1041,403.29,930.6,422.96,801.44c19.09-125.37-41.33-189.34-128.64-274.17
	c-50.51-49.08-111.33-102.96-136.3-153.23c-31.04-62.48-20.41-144.42,34.02-200.93c10.04-10.43,58.97-61.23,134.26-59.07
	c67.47,1.93,129.85,45.63,161.11,112.78"/>
<path class="st0" d="M578.7,804.47c-5.23-36.75-6.46-89.11,19.82-138.24c26.35-49.26,63.85-61.78,119.81-103.43
	c57.67-42.92,130.32-115.5,166.48-198.7c41.14-94.65,4.38-234.37-120.59-244.72c-63.92-5.29-146.7,42.46-185.52,121.2"/>
<path class="st0" d="M999.29,12.04c-20.62-14.2-76.05-7.73-101.4,18.25c-40.56,41.57-42.25,60.2-38.36,135.38"/>
<polygon class="st0" points="537.03,24.73 552.34,55.76 586.58,60.73 561.81,84.88 567.65,118.97 537.03,102.88 506.41,118.97 
	512.26,84.88 487.49,60.73 521.72,55.76 "/>
</svg>
